<svg width="36" height="34" viewBox="0 0 36 34" fill="none" xmlns="http://www.w3.org/2000/svg">
<mask id="path-1-inside-1_415_278" fill="white">
<path d="M7.2605 34H5.36975L6.5042 32.4062C7.33613 31.192 7.94118 29.75 8.2437 27.8527C2.87395 25.4241 0 20.8705 0 14.875C0 5.69196 6.88235 0 18 0C29.1176 0 36 5.69196 36 14.875C36 24.1339 29.2689 29.75 18 29.75H17.2437C15.4286 31.7232 12.4034 34 7.2605 34ZM17.8487 1.97321C7.78992 1.97321 1.81513 6.75446 1.81513 14.875C1.81513 21.7812 6.05042 24.8929 9.52941 26.3348L10.2101 26.6384L10.1345 27.3973C9.90756 29.1429 9.52941 30.6607 8.92437 31.9509C12.5546 31.4955 14.6723 29.6741 15.8067 28.1562L16.1092 27.7768H17.7731C32.2185 27.7768 33.8067 18.7455 33.8067 14.875C33.8824 6.83036 27.9076 1.97321 17.8487 1.97321Z"/>
</mask>
<path d="M7.2605 34H5.36975L6.5042 32.4062C7.33613 31.192 7.94118 29.75 8.2437 27.8527C2.87395 25.4241 0 20.8705 0 14.875C0 5.69196 6.88235 0 18 0C29.1176 0 36 5.69196 36 14.875C36 24.1339 29.2689 29.75 18 29.75H17.2437C15.4286 31.7232 12.4034 34 7.2605 34ZM17.8487 1.97321C7.78992 1.97321 1.81513 6.75446 1.81513 14.875C1.81513 21.7812 6.05042 24.8929 9.52941 26.3348L10.2101 26.6384L10.1345 27.3973C9.90756 29.1429 9.52941 30.6607 8.92437 31.9509C12.5546 31.4955 14.6723 29.6741 15.8067 28.1562L16.1092 27.7768H17.7731C32.2185 27.7768 33.8067 18.7455 33.8067 14.875C33.8824 6.83036 27.9076 1.97321 17.8487 1.97321Z" fill="black"/>
<path d="M5.36975 34L2.92569 32.2603L-0.448091 37H5.36975V34ZM6.5042 32.4062L8.94826 34.146L8.96386 34.124L8.97907 34.1018L6.5042 32.4062ZM8.2437 27.8527L11.2063 28.325L11.5669 26.0631L9.47995 25.1192L8.2437 27.8527ZM17.2437 29.75V26.75H15.9271L15.0358 27.719L17.2437 29.75ZM9.52941 26.3348L10.7514 23.595L10.7149 23.5787L10.6781 23.5634L9.52941 26.3348ZM10.2101 26.6384L13.1953 26.9359L13.4101 24.7807L11.432 23.8985L10.2101 26.6384ZM10.1345 27.3973L13.1094 27.784L13.1152 27.7395L13.1197 27.6948L10.1345 27.3973ZM8.92437 31.9509L6.20821 30.6771L3.89725 35.605L9.29775 34.9276L8.92437 31.9509ZM15.8067 28.1562L13.461 26.2861L13.4318 26.3227L13.4037 26.3602L15.8067 28.1562ZM16.1092 27.7768V24.7768H14.6643L13.7635 25.9067L16.1092 27.7768ZM33.8067 14.875L30.8069 14.8468L30.8067 14.8609V14.875H33.8067ZM7.2605 31H5.36975V37H7.2605V31ZM7.8138 35.7397L8.94826 34.146L4.06015 30.6665L2.92569 32.2603L7.8138 35.7397ZM8.97907 34.1018C10.0773 32.4989 10.8381 30.634 11.2063 28.325L5.28112 27.3803C5.04423 28.866 4.59498 29.885 4.02933 30.7107L8.97907 34.1018ZM9.47995 25.1192C5.21789 23.1916 3 19.7297 3 14.875H-3C-3 22.0113 0.530012 27.6566 7.00745 30.5861L9.47995 25.1192ZM3 14.875C3 11.0959 4.38231 8.2568 6.74219 6.3062C9.16831 4.30085 12.9218 3 18 3V-3C11.9606 -3 6.71405 -1.45487 2.91958 1.68152C-0.941135 4.87266 -3 9.4711 -3 14.875H3ZM18 3C23.0782 3 26.8317 4.30085 29.2578 6.3062C31.6177 8.2568 33 11.0959 33 14.875H39C39 9.4711 36.9411 4.87266 33.0804 1.68152C29.286 -1.45487 24.0394 -3 18 -3V3ZM33 14.875C33 18.7188 31.6365 21.5484 29.3118 23.4745C26.916 25.4596 23.1717 26.75 18 26.75V32.75C24.0972 32.75 29.3529 31.2324 33.1399 28.0947C36.998 24.898 39 20.2901 39 14.875H33ZM18 26.75H17.2437V32.75H18V26.75ZM15.0358 27.719C13.6276 29.2498 11.3527 31 7.2605 31V37C13.4541 37 17.2295 34.1966 19.4516 31.781L15.0358 27.719ZM17.8487 -1.02679C12.3873 -1.02679 7.63219 0.267222 4.18085 3.04026C0.642747 5.88301 -1.18487 10.0111 -1.18487 14.875H4.81513C4.81513 11.6184 5.9749 9.29556 7.9389 7.71755C9.98966 6.06983 13.2513 4.97321 17.8487 4.97321V-1.02679ZM-1.18487 14.875C-1.18487 18.9974 0.0991041 22.1799 2.04792 24.5564C3.95398 26.8806 6.35636 28.2671 8.38074 29.1062L10.6781 23.5634C9.22348 22.9605 7.76871 22.0703 6.68737 20.7517C5.6488 19.4852 4.81513 17.6589 4.81513 14.875H-1.18487ZM8.30746 29.0747L8.98813 29.3783L11.432 23.8985L10.7514 23.595L8.30746 29.0747ZM7.22487 26.3409L7.14924 27.0998L13.1197 27.6948L13.1953 26.9359L7.22487 26.3409ZM7.15948 27.0106C6.95659 28.5715 6.63785 29.761 6.20821 30.6771L11.6405 33.2247C12.421 31.5605 12.8585 29.7142 13.1094 27.784L7.15948 27.0106ZM9.29775 34.9276C13.8657 34.3546 16.6709 32.0112 18.2097 29.9523L13.4037 26.3602C12.6737 27.337 11.2435 28.6365 8.55099 28.9742L9.29775 34.9276ZM18.1525 30.0264L18.455 29.6469L13.7635 25.9067L13.461 26.2861L18.1525 30.0264ZM16.1092 30.7768H17.7731V24.7768H16.1092V30.7768ZM17.7731 30.7768C25.6585 30.7768 30.6352 28.2788 33.5456 24.6563C36.3549 21.1598 36.8067 17.1402 36.8067 14.875H30.8067C30.8067 16.4803 30.4645 18.9116 28.8683 20.8984C27.3732 22.7591 24.3331 24.7768 17.7731 24.7768V30.7768ZM36.8066 14.9032C36.8521 10.0629 35.0409 5.92993 31.516 3.07583C28.0759 0.290407 23.3191 -1.02679 17.8487 -1.02679V4.97321C22.4372 4.97321 25.6972 6.08459 27.7403 7.7389C29.6986 9.32454 30.837 11.6425 30.8069 14.8468L36.8066 14.9032Z" fill="black" mask="url(#path-1-inside-1_415_278)"/>
</svg>
