<svg width="25" height="25" viewBox="0 0 25 25" fill="none" xmlns="http://www.w3.org/2000/svg">
<path d="M23.1092 0H1.34498C0.988268 0 0.646168 0.141703 0.393935 0.393935C0.141703 0.646168 0 0.988268 0 1.34498V23.1092C0 23.2858 0.034789 23.4607 0.10238 23.6239C0.169972 23.7871 0.269042 23.9353 0.393935 24.0602C0.518828 24.1851 0.667097 24.2842 0.830277 24.3518C0.993458 24.4194 1.16835 24.4542 1.34498 24.4542H13.0585V14.9782H9.87948V11.31H13.0585V8.55895C12.9927 7.91307 13.0689 7.26059 13.2819 6.64729C13.4949 6.034 13.8395 5.47473 14.2916 5.00871C14.7436 4.5427 15.2921 4.18122 15.8987 3.94964C16.5052 3.71805 17.155 3.62197 17.8026 3.66812C18.7543 3.66227 19.7055 3.71126 20.6515 3.81485V7.11616H18.7074C17.1668 7.11616 16.8734 7.84978 16.8734 8.91354V11.2734H20.5415L20.0646 14.9415H16.8734V24.4542H23.1092C23.2858 24.4542 23.4607 24.4194 23.6239 24.3518C23.7871 24.2842 23.9353 24.1851 24.0602 24.0602C24.1851 23.9353 24.2842 23.7871 24.3518 23.6239C24.4194 23.4607 24.4542 23.2858 24.4542 23.1092V1.34498C24.4542 1.16835 24.4194 0.993458 24.3518 0.830277C24.2842 0.667097 24.1851 0.518828 24.0602 0.393935C23.9353 0.269042 23.7871 0.169972 23.6239 0.10238C23.4607 0.034789 23.2858 0 23.1092 0Z" fill="white"/>
</svg>
