<svg width="26" height="26" viewBox="0 0 26 26" fill="none" xmlns="http://www.w3.org/2000/svg">
<path d="M17.8212 9.83451C17.6951 9.88297 17.5799 9.95581 17.4822 10.0488C17.3845 10.1418 17.3063 10.2531 17.252 10.3764C17.1978 10.4996 17.1685 10.6323 17.166 10.7669C17.1635 10.9014 17.1877 11.0352 17.2373 11.1603C17.5749 12.0322 17.6015 12.9929 17.3129 13.882C17.0243 14.7711 16.4379 15.5346 15.6518 16.0449C14.8656 16.5551 13.9274 16.7812 12.9938 16.6854C12.0603 16.5896 11.1882 16.1776 10.5231 15.5183C9.85809 14.8591 9.44051 13.9925 9.34021 13.0635C9.2399 12.1345 9.46294 11.1994 9.97204 10.4144C10.4811 9.62952 11.2454 9.04238 12.1372 8.75119C13.0289 8.46 13.994 8.48239 14.8711 8.81464C15.1251 8.91066 15.407 8.90229 15.6549 8.79136C15.9027 8.68043 16.0961 8.47602 16.1925 8.22312C16.289 7.97022 16.2805 7.68953 16.1691 7.4428C16.0577 7.19608 15.8524 7.00352 15.5984 6.9075C14.2843 6.4126 12.8396 6.38089 11.5048 6.81767C10.1701 7.25445 9.02597 8.13334 8.26301 9.30794C7.50006 10.4825 7.16434 11.8819 7.31178 13.2731C7.45922 14.6642 8.08091 15.963 9.07331 16.9531C10.2257 18.0991 11.7878 18.7427 13.4165 18.7427C15.0453 18.7427 16.6074 18.0991 17.7598 16.9531C18.6036 16.1153 19.1845 15.0512 19.4318 13.8906C19.6792 12.7299 19.5822 11.5226 19.1529 10.4158C19.1042 10.2903 19.031 10.1756 18.9376 10.0783C18.8442 9.98106 18.7324 9.90317 18.6086 9.84913C18.4848 9.79509 18.3515 9.76598 18.2164 9.76347C18.0812 9.76096 17.9469 9.7851 17.8212 9.83451Z" fill="white"/>
<path d="M20.4335 6.44891C20.9993 6.44891 21.4579 5.9923 21.4579 5.42904C21.4579 4.86579 20.9993 4.40918 20.4335 4.40918C19.8678 4.40918 19.4092 4.86579 19.4092 5.42904C19.4092 5.9923 19.8678 6.44891 20.4335 6.44891Z" fill="white"/>
<path d="M25.5552 5.42869C25.5555 4.09375 25.03 2.81194 24.0915 1.85851C23.153 0.905085 21.8765 0.356073 20.5359 0.329374C15.7316 -0.109791 10.897 -0.109791 6.09266 0.329374C4.74837 0.329203 3.4579 0.855236 2.49971 1.79397C1.54153 2.7327 0.992435 4.00887 0.970927 5.3471C0.602139 10.1266 0.602139 14.9273 0.970927 19.7068C0.970658 21.0417 1.49618 22.3235 2.43465 23.2769C3.37312 24.2304 4.64968 24.7794 5.99022 24.8061C8.40768 25.0305 10.8354 25.1528 13.2631 25.1528C15.6908 25.1528 18.0877 25.0407 20.4847 24.8061C21.8201 24.793 23.0976 24.261 24.0447 23.3237C24.9919 22.3864 25.5339 21.1178 25.5552 19.7884C25.9445 15.0096 25.9445 10.2074 25.5552 5.42869ZM23.5065 19.7068C23.5065 20.5182 23.1828 21.2964 22.6065 21.8702C22.0302 22.444 21.2485 22.7664 20.4335 22.7664H20.3311C15.5961 23.2253 10.8276 23.2253 6.09266 22.7664C5.68211 22.7665 5.2757 22.6847 4.89741 22.5259C4.51913 22.3671 4.17665 22.1344 3.8902 21.8416C3.60374 21.5488 3.37912 21.2018 3.22959 20.8211C3.08007 20.4404 3.00867 20.0338 3.01962 19.6252C2.66109 14.8997 2.66109 10.1541 3.01962 5.42869C3.01943 5.01906 3.10187 4.61356 3.26204 4.23624C3.4222 3.85892 3.65684 3.51747 3.95204 3.23212C4.24723 2.94678 4.59697 2.72336 4.98051 2.57511C5.36406 2.42687 5.7736 2.35681 6.18485 2.3691C8.53401 2.15833 10.89 2.04954 13.2528 2.04274C15.6157 2.03594 18.0092 2.14473 20.4335 2.3691C20.844 2.36895 21.2505 2.45071 21.6287 2.60955C22.007 2.76839 22.3495 3.00108 22.636 3.29388C22.9224 3.58669 23.147 3.93368 23.2966 4.31435C23.4461 4.69503 23.5175 5.10167 23.5065 5.51028C23.8958 10.2345 23.8958 14.9825 23.5065 19.7068Z" fill="white"/>
</svg>
