<svg width="26" height="26" viewBox="0 0 26 26" fill="none" xmlns="http://www.w3.org/2000/svg">
<path d="M0.467285 2.92179C0.467285 2.07488 0.750546 1.37619 1.31704 0.825724C1.88354 0.275233 2.62001 0 3.52641 0C4.41664 0 5.1369 0.27099 5.68723 0.813021C6.25372 1.37197 6.53699 2.10029 6.53699 2.99801C6.53699 3.81104 6.26183 4.48854 5.71151 5.03057C5.14501 5.58952 4.40045 5.869 3.47786 5.869H3.45358C2.56335 5.869 1.84309 5.58952 1.29276 5.03057C0.742437 4.47162 0.467285 3.76868 0.467285 2.92179ZM0.78291 25.1528V8.18102H6.1728V25.1528H0.78291ZM9.1591 25.1528H14.549V15.6761C14.549 15.0832 14.6137 14.6259 14.7432 14.3041C14.9698 13.7282 15.3138 13.2412 15.7751 12.8432C16.2364 12.4451 16.815 12.2461 17.511 12.2461C19.3238 12.2461 20.2302 13.5249 20.2302 16.0826V25.1528H25.6201V15.422C25.6201 12.9152 25.0536 11.0139 23.9206 9.71814C22.7876 8.42239 21.2904 7.77451 19.429 7.77451C17.3411 7.77451 15.7144 8.71457 14.549 10.5947V10.6455H14.5247L14.549 10.5947V8.18102H9.1591C9.19146 8.72303 9.20765 10.4083 9.20765 13.237C9.20765 16.0656 9.19146 20.0376 9.1591 25.1528Z" fill="white"/>
</svg>
