<svg width="22" height="17" viewBox="0 0 22 17" fill="none" xmlns="http://www.w3.org/2000/svg">
<path d="M0 1.93674V1.37321C0 1.00901 0.144677 0.659731 0.402204 0.402204C0.659731 0.144677 1.00901 0 1.37321 0L20.5982 0C20.9624 0 21.3116 0.144677 21.5692 0.402204C21.8267 0.659731 21.9714 1.00901 21.9714 1.37321V1.93674L10.9857 8.80279L0 1.93674ZM11.3496 10.1949C11.2404 10.263 11.1144 10.2991 10.9857 10.2991C10.857 10.2991 10.7309 10.263 10.6218 10.1949L0 3.5561V15.1053C0 15.4695 0.144677 15.8188 0.402204 16.0763C0.659731 16.3338 1.00901 16.4785 1.37321 16.4785H20.5982C20.9624 16.4785 21.3116 16.3338 21.5692 16.0763C21.8267 15.8188 21.9714 15.4695 21.9714 15.1053V3.5561L11.3496 10.1949Z" fill="white"/>
</svg>
