<svg width="31" height="32" viewBox="0 0 31 32" fill="none" xmlns="http://www.w3.org/2000/svg">
<path d="M16.4946 3.3761C17.204 3.02072 17.5588 2.13228 17.3814 1.42152C17.204 0.710758 16.3172 0 15.4304 0C6.73972 0.17769 0 7.28527 0 15.9921C0 24.8765 7.09445 31.9841 15.9625 31.9841C22.7022 31.9841 28.5551 27.7196 30.8608 21.5004C31.2156 20.7897 30.8608 19.9012 30.1514 19.3682C29.442 18.8351 28.5551 19.0128 28.0231 19.5459C26.2494 21.1451 23.9438 22.0335 21.4607 22.0335C15.9625 22.0335 11.3511 17.5913 11.3511 11.9052C11.3511 8.5291 13.3021 5.153 16.4946 3.3761ZM21.4607 25.5873C22.3475 25.5873 23.2343 25.5873 23.9438 25.4096C21.8154 27.3642 18.9776 28.4303 15.9625 28.4303C9.04542 28.4303 3.54722 22.922 3.54722 15.9921C3.54722 11.5498 6.03028 7.46296 9.75486 5.33069C8.51334 7.28527 7.98125 9.59524 7.98125 12.0829C7.80389 19.5459 14.0115 25.5873 21.4607 25.5873Z" fill="black"/>
</svg>
