<svg width="37" height="36" viewBox="0 0 37 36" fill="none" xmlns="http://www.w3.org/2000/svg">
<path fill-rule="evenodd" clip-rule="evenodd" d="M34.8745 11.0617L33.7088 9.23075C32.7226 7.68148 30.537 7.14702 28.8231 8.03597C28.0072 8.471 27.0336 8.59443 26.1171 8.37903C25.2006 8.16363 24.4163 7.62709 23.9373 6.88774C23.6292 6.4178 23.4636 5.88253 23.4573 5.33608C23.4851 4.45997 23.12 3.61099 22.445 2.98252C21.7701 2.35406 20.8428 1.99964 19.8745 2H17.5259C16.5773 2 15.6677 2.34215 14.9985 2.95078C14.3293 3.55941 13.9556 4.38432 13.9602 5.24298C13.9321 7.01582 12.3362 8.43959 10.3773 8.4394C9.77362 8.43373 9.18226 8.28386 8.66306 8.00494C6.94907 7.11599 4.76354 7.65045 3.77735 9.19972L2.52592 11.0617C1.54091 12.6091 2.12335 14.586 3.82878 15.484C4.93733 16.0633 5.62022 17.1339 5.62022 18.2925C5.62022 19.4511 4.93733 20.5217 3.82878 21.101C2.12552 21.9929 1.54244 23.965 2.52592 25.5077L3.70878 27.3542C4.17085 28.1089 4.94613 28.6657 5.86306 28.9016C6.77999 29.1375 7.76298 29.0329 8.59449 28.611C9.41191 28.1793 10.386 28.061 11.3002 28.2825C12.2145 28.5039 12.9931 29.0467 13.4631 29.7903C13.7712 30.2602 13.9368 30.7955 13.9431 31.342C13.9431 33.133 15.5472 34.5849 17.5259 34.5849H19.8745C21.8466 34.5849 23.4479 33.1425 23.4573 31.3575C23.4528 30.4961 23.8288 29.6688 24.5017 29.0598C25.1746 28.4507 26.0886 28.1104 27.0402 28.1145C27.6425 28.1291 28.2314 28.2783 28.7545 28.549C30.464 29.4405 32.6481 28.9133 33.6402 27.3697L34.8745 25.5077C35.3522 24.7655 35.4834 23.8814 35.2388 23.0514C34.9943 22.2214 34.3943 21.5138 33.5716 21.0855C32.749 20.6571 32.149 19.9495 31.9044 19.1195C31.6599 18.2895 31.791 17.4055 32.2688 16.6632C32.5795 16.1722 33.0292 15.7652 33.5716 15.484C35.2668 14.5865 35.8479 12.6211 34.8745 11.0772V11.0617Z" stroke="#1E1E1E" stroke-width="2.25" stroke-linecap="round" stroke-linejoin="round"/>
<path d="M18.7083 22.7613C21.4349 22.7613 23.6452 20.7606 23.6452 18.2927C23.6452 15.8248 21.4349 13.8242 18.7083 13.8242C15.9818 13.8242 13.7715 15.8248 13.7715 18.2927C13.7715 20.7606 15.9818 22.7613 18.7083 22.7613Z" stroke="#1E1E1E" stroke-width="2.25" stroke-linecap="round" stroke-linejoin="round"/>
</svg>
