<svg width="27" height="32" viewBox="0 0 27 32" fill="none" xmlns="http://www.w3.org/2000/svg">
<path d="M9.57943 19.9527C11.918 19.7601 14.2693 19.7601 16.6079 19.9527C17.8868 20.0349 19.157 20.2142 20.4068 20.4889C23.11 21.0115 24.8743 22.0428 25.6141 23.5554C26.2052 24.8121 26.1896 26.2574 25.5714 27.5018C24.8174 29.0144 23.0531 30.0457 20.3072 30.582C19.0616 30.8512 17.7963 31.0259 16.5226 31.1046C15.114 31.2558 13.9189 31.2558 12.8091 31.2558H12.3681C11.7394 31.1904 11.2628 30.6775 11.2628 30.0664C11.2628 29.4552 11.7394 28.9424 12.3681 28.8769L13.3416 28.8767C14.3173 28.8658 15.299 28.8219 16.2807 28.7394C17.4389 28.6666 18.5898 28.5103 19.7238 28.2719C21.673 27.8594 22.8966 27.2681 23.2808 26.4843C23.5796 25.8847 23.5796 25.1862 23.2808 24.5867C22.8966 23.7891 21.673 23.1703 19.7665 22.7991C18.6149 22.5494 17.4445 22.3884 16.2665 22.3178C14.0657 22.1253 11.8514 22.1253 9.65057 22.3178C8.48772 22.3906 7.33208 22.5469 6.19322 22.7853C4.24401 23.1978 3.03465 23.7891 2.63628 24.5729C2.49513 24.8706 2.42232 25.1943 2.42286 25.5217C2.42206 25.8536 2.49483 26.1818 2.63628 26.4843C3.31346 27.3781 4.34377 27.9607 5.48183 28.0931L5.64693 28.1361C6.02135 28.261 6.31525 28.5536 6.42974 28.9271C6.56059 29.3538 6.43548 29.8155 6.10498 30.1255C5.77448 30.4355 5.29325 30.5425 4.85581 30.4033C3.02151 30.1142 1.41271 29.0575 0.459429 27.5156C-0.153143 26.2667 -0.153143 24.818 0.459429 23.5691C1.2135 22.0153 2.97774 21.0115 5.69525 20.4752C6.97469 20.2077 8.27304 20.033 9.57943 19.9527ZM9.71 0.636379C12.9495 -0.658984 16.6775 0.0600042 19.1545 2.45787C21.6314 4.85574 22.3692 8.4599 21.0236 11.5887C19.678 14.7175 16.5142 16.7543 13.0083 16.7487C8.22849 16.7411 4.35784 12.9941 4.35784 8.37448L4.36588 8.01278C4.51018 4.77023 6.58617 1.88548 9.71 0.636379ZM13.0083 2.39286C11.3644 2.38922 9.78654 3.01781 8.62278 4.13998C7.45902 5.26214 6.805 6.78567 6.805 8.37448C6.79925 10.8006 8.30699 12.991 10.6245 13.9233C12.9421 14.8556 15.6126 14.346 17.3897 12.6324C19.1667 10.9189 19.7001 8.33909 18.7408 6.09709C17.7815 3.85509 15.5186 2.39286 13.0083 2.39286Z" fill="#200E32"/>
</svg>
