<svg width="22" height="22" viewBox="0 0 22 22" fill="none" xmlns="http://www.w3.org/2000/svg">
<path d="M8.91291 5.04822C8.62656 1.75251 5.1904 0.13541 5.04498 0.0694061C4.90903 0.00546265 4.75669 -0.0149672 4.60871 0.0109025C0.641833 0.669444 0.0451518 2.97959 0.0211647 3.07559C-0.0114709 3.20938 -0.0062802 3.34961 0.0361566 3.48062C4.76763 18.1695 14.6009 20.8922 17.8331 21.7878C18.082 21.8568 18.2874 21.9123 18.4433 21.9633C18.6212 22.0214 18.8145 22.0102 18.9845 21.9318C19.0835 21.8868 21.4192 20.7857 21.9904 17.1945C22.0158 17.0377 21.9905 16.8769 21.9185 16.7355C21.8675 16.6364 20.6456 14.3098 17.2574 13.4877C17.1425 13.4583 17.0221 13.4573 16.9067 13.4847C16.7913 13.5122 16.6842 13.5673 16.5948 13.6453C15.5259 14.5588 14.0492 15.5324 13.412 15.6329C9.14079 13.5433 6.75556 9.5335 6.66561 8.77295C6.61314 8.34542 7.59212 6.84383 8.71801 5.62275C8.78878 5.5459 8.84268 5.45508 8.87625 5.35613C8.90981 5.25718 8.9223 5.15229 8.91291 5.04822Z" fill="white"/>
</svg>
