<svg width="31" height="31" viewBox="0 0 31 31" fill="none" xmlns="http://www.w3.org/2000/svg">
<path d="M7.75 15.5C7.75 19.84 11.16 23.25 15.5 23.25C19.84 23.25 23.25 19.84 23.25 15.5C23.25 11.16 19.84 7.75 15.5 7.75C11.16 7.75 7.75 11.16 7.75 15.5ZM15.5 10.85C18.135 10.85 20.15 12.865 20.15 15.5C20.15 18.135 18.135 20.15 15.5 20.15C12.865 20.15 10.85 18.135 10.85 15.5C10.85 12.865 12.865 10.85 15.5 10.85ZM17.05 4.65V1.55C17.05 0.62 16.43 0 15.5 0C14.57 0 13.95 0.62 13.95 1.55V4.65C13.95 5.58 14.57 6.2 15.5 6.2C16.43 6.2 17.05 5.58 17.05 4.65ZM26.505 4.495C25.885 3.875 24.955 3.875 24.335 4.495L22.165 6.665C21.545 7.285 21.545 8.215 22.165 8.835C22.475 9.145 22.94 9.3 23.25 9.3C23.56 9.3 24.025 9.145 24.335 8.835L26.505 6.665C27.125 6.2 27.125 5.115 26.505 4.495ZM29.45 13.95H26.35C25.42 13.95 24.8 14.57 24.8 15.5C24.8 16.43 25.42 17.05 26.35 17.05H29.45C30.38 17.05 31 16.43 31 15.5C31 14.57 30.38 13.95 29.45 13.95ZM24.335 22.01C23.715 21.39 22.785 21.39 22.165 22.01C21.545 22.63 21.545 23.56 22.165 24.18L24.335 26.35C24.645 26.66 25.11 26.815 25.42 26.815C25.73 26.815 26.195 26.66 26.505 26.35C27.125 25.73 27.125 24.8 26.505 24.18L24.335 22.01ZM13.95 26.35V29.45C13.95 30.38 14.57 31 15.5 31C16.43 31 17.05 30.38 17.05 29.45V26.35C17.05 25.42 16.43 24.8 15.5 24.8C14.57 24.8 13.95 25.42 13.95 26.35ZM4.495 26.505C4.805 26.815 5.27 26.97 5.58 26.97C5.89 26.97 6.355 26.815 6.665 26.505L8.835 24.335C9.455 23.715 9.455 22.785 8.835 22.165C8.215 21.545 7.285 21.545 6.665 22.165L4.495 24.335C3.875 24.8 3.875 25.885 4.495 26.505ZM0 15.5C0 16.43 0.62 17.05 1.55 17.05H4.65C5.58 17.05 6.2 16.43 6.2 15.5C6.2 14.57 5.58 13.95 4.65 13.95H1.55C0.62 13.95 0 14.57 0 15.5ZM6.665 4.495C6.045 3.875 5.115 3.875 4.495 4.495C3.875 5.115 3.875 6.045 4.495 6.665L6.665 8.835C6.975 9.3 7.44 9.455 7.905 9.455C8.37 9.455 8.68 9.3 8.99 8.99C9.61 8.37 9.61 7.44 8.99 6.82L6.665 4.495Z" fill="black"/>
</svg>
