<svg width="30" height="24" viewBox="0 0 30 24" fill="none" xmlns="http://www.w3.org/2000/svg">
<path d="M29.0742 2.841C27.9833 3.32563 26.8296 3.6477 25.6486 3.79732C26.8932 3.04524 27.8237 1.85435 28.264 0.450219C27.0986 1.15423 25.8236 1.65 24.494 1.91608C23.6788 1.02951 22.6207 0.413146 21.4572 0.147069C20.2936 -0.119009 19.0784 -0.022503 17.9693 0.424048C16.8603 0.8706 15.9088 1.64655 15.2384 2.6511C14.5679 3.65565 14.2096 4.84235 14.2099 6.05702C14.2099 6.53703 14.2498 6.99857 14.3477 7.43796C11.9825 7.31984 9.66843 6.69459 7.55676 5.60308C5.4451 4.51158 3.58339 2.97839 2.09334 1.10376C1.32995 2.43643 1.09395 4.01537 1.43338 5.51906C1.77282 7.02275 2.66217 8.33813 3.92034 9.19735C2.97922 9.17165 2.05795 8.91584 1.23422 8.4515V8.51796C1.2358 9.91631 1.7103 11.2714 2.57786 12.3551C3.44541 13.4389 4.65305 14.1851 5.99747 14.4682C5.48886 14.6047 4.96468 14.6717 4.43872 14.6675C4.06097 14.6744 3.68361 14.6397 3.31316 14.5642C3.6973 15.7661 4.43779 16.8171 5.43268 17.5726C6.42757 18.3281 7.62792 18.7508 8.86847 18.7826C6.76405 20.459 4.16861 21.3684 1.49703 21.3654C1.00947 21.3654 0.541844 21.3433 0.0742188 21.2824C2.79276 23.0667 5.96063 24.0107 9.19472 23.9999C20.135 23.9999 26.1162 14.7691 26.1162 6.7678C26.1162 6.5001 26.1072 6.24164 26.0945 5.98502C27.2671 5.13022 28.2769 4.06479 29.0742 2.841Z" fill="white"/>
</svg>
